<?xml version="1.0" encoding="UTF-8" standalone="no"?>
<!-- Created with Inkscape (http://www.inkscape.org/) -->

<svg
   xmlns:dc="http://purl.org/dc/elements/1.1/"
   xmlns:cc="http://creativecommons.org/ns#"
   xmlns:rdf="http://www.w3.org/1999/02/22-rdf-syntax-ns#"
   xmlns:svg="http://www.w3.org/2000/svg"
   xmlns="http://www.w3.org/2000/svg"
   xmlns:sodipodi="http://sodipodi.sourceforge.net/DTD/sodipodi-0.dtd"
   xmlns:inkscape="http://www.inkscape.org/namespaces/inkscape"
   width="364.74405"
   height="116.38981"
   id="svg4275"
   version="1.1"
   inkscape:version="0.48.4 r9939"
   sodipodi:docname="New document 18">
  <defs
     id="defs4277" />
  <sodipodi:namedview
     id="base"
     pagecolor="#ffffff"
     bordercolor="#666666"
     borderopacity="1.0"
     inkscape:pageopacity="0.0"
     inkscape:pageshadow="2"
     inkscape:zoom="1.4"
     inkscape:cx="201.99836"
     inkscape:cy="66.305472"
     inkscape:document-units="px"
     inkscape:current-layer="layer1"
     showgrid="false"
     fit-margin-top="0"
     fit-margin-left="0"
     fit-margin-right="0"
     fit-margin-bottom="0"
     inkscape:window-width="927"
     inkscape:window-height="1028"
     inkscape:window-x="1015"
     inkscape:window-y="260"
     inkscape:window-maximized="0" />
  <metadata
     id="metadata4280">
    <rdf:RDF>
      <cc:Work
         rdf:about="">
        <dc:format>image/svg+xml</dc:format>
        <dc:type
           rdf:resource="http://purl.org/dc/dcmitype/StillImage" />
        <dc:title></dc:title>
      </cc:Work>
    </rdf:RDF>
  </metadata>
  <g
     inkscape:label="Layer 1"
     inkscape:groupmode="layer"
     id="layer1"
     transform="translate(-124.93015,-366.76644)">
    <g
       id="g3336"
       transform="matrix(2.0239917,0,0,-2.0239917,227.07292,470.679)"
       style="fill:#000000">
      <path
         inkscape:connector-curvature="0"
         d="m 0,0 c -10.45,0 -18.925,8.477 -18.925,18.926 0,10.449 8.475,18.926 18.925,18.926 10.449,0 18.924,-8.475 18.926,-18.926 C 18.926,8.477 10.449,0 0,0 m -25.233,34.064 c 0,-1.392 -1.13,-2.521 -2.524,-2.521 l -7.569,0 c -1.394,0 -2.524,1.129 -2.524,2.521 l 0,1.262 c 0,1.395 1.13,2.526 2.524,2.526 l 7.569,0 c 1.394,0 2.524,-1.129 2.524,-2.526 l 0,-1.262 z m 44.157,10.096 -3.785,0 c 0,1.393 -1.129,2.524 -2.523,2.524 l -2.524,0 c -1.393,0 -2.523,-1.131 -2.523,-2.524 l -23.971,0 c -2.524,0 -2.524,6.307 -5.047,6.307 l -8.83,0 -0.002,0 -0.005,0 -0.01,0 -0.013,0 -0.016,0 -0.02,0 -0.023,0 -0.026,0 -0.029,0 -0.032,0 -0.03,0 -0.005,0 -0.039,0 -0.042,0 -0.044,0 -0.049,0 -0.013,0 -0.037,0 -0.055,0 -0.053,0 -0.042,0 -0.017,0 -0.061,0 -0.064,0 -0.037,0 -0.03,0 -0.069,0 -0.07,0 -0.006,0 -0.067,0 -0.075,0 -0.024,0 -0.053,0 -0.081,0 -0.024,0 -0.059,0 -0.082,0 -0.011,0 -0.076,0 -0.067,0 -0.019,0 -0.09,0 -0.026,0 -0.066,0 -0.059,0 -0.034,0 -0.082,0 -0.013,0 -0.095,0 -0.002,0 -0.095,0 -0.002,0 -0.085,0 -0.015,0 -0.063,0 -0.037,0 -0.027,0 -0.056,0 -0.021,0 -0.022,0 -0.032,0 -0.019,0 -0.006,0 -2.523,0 c -2.524,0 -2.524,-6.307 -5.046,-6.307 l -3.786,0 c -3.483,0 -6.308,-2.826 -6.308,-6.308 l 0,-37.85 c 0,-3.482 2.825,-6.311 6.308,-6.309 l 63.082,0 c 3.482,0 6.307,2.827 6.307,6.309 l 0,37.85 c 0,3.482 -2.825,6.308 -6.307,6.308"
         style="fill:#000000;fill-opacity:1;fill-rule:nonzero;stroke:none"
         id="path3338" />
    </g>
    <path
       style="fill:#000000;fill-opacity:1;fill-rule:nonzero;stroke:none"
       d="m 470.5,390.75 c -0.73094,0.0919 -1.37563,0.45125 -1.78125,1.0625 l -7.5,11.34375 -4.3125,-2.84375 -8.71875,13.125 c -3.32375,5.02 -2.0675,11.89375 2.59375,16.625 l -5.125,9.8125 2.125,1.40625 -25.09375,37.875 c -0.89774,1.35479 -1.63118,2.67521 -2.21875,4 l 6.4375,0 c 0.17383,-0.28812 0.3379,-0.58318 0.53125,-0.875 l 25.09375,-37.84375 1.15625,0.75 7.3125,-8.375 c 6.12375,2.34125 12.83625,0.77625 16.125,-4.1875 l 8.71875,-13.15625 -4.0625,-2.6875 7.5,-11.3125 c 0.81375,-1.22 0.3225,-2.9975 -1.09375,-3.9375 -1.42,-0.945 -3.25,-0.6975 -4.0625,0.53125 l -7.5,11.3125 -10.28125,-6.8125 7.5,-11.3125 c 0.8125,-1.22875 0.325,-2.9975 -1.09375,-3.9375 -0.71062,-0.47125 -1.51906,-0.65437 -2.25,-0.5625 z m 4.375,67.65625 c -4.2347,0.0484 -8.78281,2.17422 -12.125,7.21875 l -11.625,17.53125 6.84375,0 9.53125,-14.375 c 3.29625,-4.96875 8.20125,-5.5775 11.15625,-3.625 0.95,0.6325 2.13625,1.82125 2.40625,3.90625 0.27375,2.12875 -0.49125,4.645 -2.21875,7.25 l -4.53125,6.84375 6.875,0 2.4375,-3.6875 c 2.49875,-3.775 3.575,-7.62125 3.125,-11.125 -0.4225,-3.30125 -2.185,-6.11125 -4.9375,-7.9375 -1.97109,-1.30828 -4.39668,-2.02906 -6.9375,-2 z"
       id="path3324"
       inkscape:connector-curvature="0" />
    <g
       style="fill:#000000"
       id="g3348"
       transform="matrix(-1.25,0,0,1.25,295.94783,440.93732)">
      <path
         inkscape:connector-curvature="0"
         d="m 0,0 c 0.423,0.525 0.845,1.047 1.263,1.564 l -24.713,0 -13.809,-17.093 c 0,0 -11.152,-13.809 -7.388,-24.448 C -14.869,-18.41 -3.718,-4.602 0,0"
         style="fill:#000000;fill-opacity:1;fill-rule:nonzero;stroke:none"
         id="path3350" />
    </g>
    <path
       id="path3354"
       style="fill:#000000;fill-opacity:1;fill-rule:nonzero;stroke:none"
       d="m 359.10583,458.5032 0,5.03125 4.75125,0 0,4.46875 -4.75125,0 0,4.7525 -4.74625,0 0,-4.7525 -4.755,0 0,-4.46875 4.755,0 0,-5.03125 4.74625,0 z m -70.45625,7.12625 c 0,-2.20875 1.7925,-4.00375 4.005,-4.00375 2.21,0 4.005,1.795 4.005,4.00375 0,2.2125 -1.7975,4.00625 -4.005,4.00625 -2.2125,0 -4.005,-1.79375 -4.005,-4.00625 m -13.30875,0.095 c 0,9.6 7.81,17.41 17.40625,17.41 l 71.9025,0 c 9.5975,0 17.405,-7.81 17.405,-17.41 0,-9.59625 -7.8075,-17.40375 -17.405,-17.40375 l -71.9025,0 c -9.59625,0 -17.40625,7.8075 -17.40625,17.40375"
       inkscape:connector-curvature="0" />
    <path
       id="path3080"
       style="fill:#000000;fill-opacity:1;fill-rule:nonzero;stroke:none"
       d="m 394.39244,434.24802 c -2.66156,-2.16015 -5.9555,-3.56716 -9.56667,-3.8854 l -1.45511,-9.55337 -1.53901,9.53699 c -3.61321,0.29062 -6.91944,1.66693 -9.59737,3.80764 l -6.04249,-10.24101 c 4.85036,-3.44744 10.78336,-5.4674 17.18604,-5.43977 6.40575,0.0276 12.3193,2.09875 17.14203,5.58814 l -6.12742,10.18678 z m 24.04714,36.66012 0.1934,-45.74585 c 0.0297,-6.88669 -5.54721,-12.51474 -12.43698,-12.54544 l -45.58314,-0.19545 c -6.88669,-0.0297 -12.51475,5.55029 -12.54545,12.43698 l -0.19442,45.74585 c -0.0307,6.88976 5.54824,12.51781 12.43698,12.54749 l 45.58314,0.19545 c 6.88976,0.0286 12.5168,-5.55131 12.54647,-12.43903"
       inkscape:connector-curvature="0" />
    <path
       sodipodi:type="arc"
       style="fill:#000000"
       id="path4386"
       sodipodi:cx="101.26779"
       sodipodi:cy="66.639793"
       sodipodi:rx="30.809652"
       sodipodi:ry="30.809652"
       d="m 132.07744,66.639793 a 30.809652,30.809652 0 1 1 -61.619301,0 30.809652,30.809652 0 1 1 61.619301,0 z"
       transform="translate(125.9403,366.00882)" />
  </g>
</svg>
