<?xml version="1.0" encoding="UTF-8" standalone="no"?>

<svg
   xmlns:dc="http://purl.org/dc/elements/1.1/"
   xmlns:cc="http://creativecommons.org/ns#"
   xmlns:rdf="http://www.w3.org/1999/02/22-rdf-syntax-ns#"
   xmlns:svg="http://www.w3.org/2000/svg"
   xmlns="http://www.w3.org/2000/svg"
   version="1.1"
   width="1052.3625"
   height="744.09998"
   id="svg3004"
   xml:space="preserve"><metadata
     id="metadata3010"><rdf:RDF><cc:Work
         rdf:about=""><dc:format>image/svg+xml</dc:format><dc:type
           rdf:resource="http://purl.org/dc/dcmitype/StillImage" /><dc:title></dc:title></cc:Work></rdf:RDF></metadata><defs
     id="defs3008">
     <clipPath
       id="clipPath3074"><path
         d="m 0,595.28 841.89,0 L 841.89,0 0,0 0,595.28 z"
         id="path3076" /></clipPath></defs>
         <g
     transform="matrix(1.25,0,0,-1.25,0,744.1)"
     id="g3012"><g
       transform="translate(187.9414,222.4404)"
       id="g3014"><path
         d="M 0,0 -0.685,1.879 -59.04,-19.379 -58.356,-21.26 0,0 z"
         id="path3016"
         style="fill:#231f20;fill-opacity:1;fill-rule:nonzero;stroke:none" /></g><g
       transform="translate(186.2617,227.0518)"
       id="g3018"><path
         d="m 0,0 -1.261,3.451 -58.353,-21.26 1.257,-3.453 L 0,0 z"
         id="path3020"
         style="fill:#231f20;fill-opacity:1;fill-rule:nonzero;stroke:none" /></g><g
       transform="translate(124.0176,216.4619)"
       id="g3022"><path
         d="M 0,0 1.147,-3.145 52.096,15.422 50.951,18.562 0,0 z"
         id="path3024"
         style="fill:#231f20;fill-opacity:1;fill-rule:nonzero;stroke:none" /></g><g
       transform="translate(122.2354,221.3564)"
       id="g3026"><path
         d="M 0,0 0.686,-1.883 51.634,16.68 50.95,18.562 0,0 z"
         id="path3028"
         style="fill:#231f20;fill-opacity:1;fill-rule:nonzero;stroke:none" /></g><g
       transform="translate(120.1064,227.2041)"
       id="g3030"><path
         d="M 0,0 0.915,-2.51 51.863,16.051 50.952,18.559 0,0 z"
         id="path3032"
         style="fill:#231f20;fill-opacity:1;fill-rule:nonzero;stroke:none" /></g><g
       transform="translate(115.293,240.4189)"
       id="g3034"><path
         d="M 0,0 1.143,-3.139 52.095,15.422 50.95,18.561 0,0 z"
         id="path3036"
         style="fill:#231f20;fill-opacity:1;fill-rule:nonzero;stroke:none" /></g><g
       transform="translate(113.5088,245.3154)"
       id="g3038"><path
         d="M 0,0 0.683,-1.881 51.636,16.678 50.951,18.559 0,0 z"
         id="path3040"
         style="fill:#231f20;fill-opacity:1;fill-rule:nonzero;stroke:none" /></g><g
       transform="translate(109.6357,255.9443)"
       id="g3042"><path
         d="M 0,0 1.713,-4.707 52.667,13.854 50.95,18.562 0,0 z"
         id="path3044"
         style="fill:#231f20;fill-opacity:1;fill-rule:nonzero;stroke:none" /></g><g
       transform="translate(107.8047,260.9697)"
       id="g3046"><path
         d="M 0,0 0.458,-1.254 51.408,17.307 50.947,18.562 0,0 z"
         id="path3048"
         style="fill:#231f20;fill-opacity:1;fill-rule:nonzero;stroke:none" /></g><g
       transform="translate(105.6709,266.8311)"
       id="g3050"><path
         d="M 0,0 1.14,-3.141 52.094,15.422 50.951,18.559 0,0 z"
         id="path3052"
         style="fill:#231f20;fill-opacity:1;fill-rule:nonzero;stroke:none" /></g><g
       transform="translate(103.8838,271.7314)"
       id="g3054"><path
         d="M 0,0 0.687,-1.885 51.638,16.676 50.952,18.557 0,0 z"
         id="path3056"
         style="fill:#231f20;fill-opacity:1;fill-rule:nonzero;stroke:none" /></g><g
       transform="translate(160.9307,296.583)"
       id="g3058"><path
         d="m 0,0 -1.026,2.826 -58.36,-21.258 1.032,-2.83 L 0,0 z"
         id="path3060"
         style="fill:#231f20;fill-opacity:1;fill-rule:nonzero;stroke:none" /></g><g
       transform="translate(100.3193,281.5166)"
       id="g3062"><path
         d="M 0,0 58.356,21.26 57.668,23.145 -0.686,1.881 0,0 z"
         id="path3064"
         style="fill:#231f20;fill-opacity:1;fill-rule:nonzero;stroke:none" /></g><g
       transform="translate(118.3213,232.1025)"
       id="g3066"><path
         d="m 0,0 0.456,-1.254 50.95,18.563 -0.452,1.25 L 0,0 z"
         id="path3068"
         style="fill:#231f20;fill-opacity:1;fill-rule:nonzero;stroke:none" /></g><g
       id="g3070"><g
         clip-path="url(#clipPath3074)"
         id="g3072"><g
           transform="translate(541.2178,391.6494)"
           id="g3078"><path
             d="m 0,0 c -2.601,2.111 -5.82,3.486 -9.349,3.797 l -1.422,9.336 -1.504,-9.32 C -15.806,3.529 -19.037,2.184 -21.654,0.092 L -27.559,10.1 c 4.74,3.369 10.538,5.343 16.795,5.316 6.26,-0.027 12.039,-2.051 16.752,-5.461 L 0,0 z m 23.5,-35.826 0.189,44.705 c 0.029,6.73 -5.421,12.23 -12.154,12.26 l -44.546,0.191 c -6.73,0.029 -12.23,-5.424 -12.26,-12.154 l -0.19,-44.705 c -0.03,-6.733 5.422,-12.233 12.154,-12.262 l 44.546,-0.191 c 6.733,-0.028 12.232,5.425 12.261,12.156"
             id="path3080"
             style="fill:#231f20;fill-opacity:1;fill-rule:nonzero;stroke:none" /></g><path
           d="m 163.516,374.075 2.846,0 0,-10.387 -2.846,0 0,10.387 z m 21.663,-10.387 -2.845,0 0,10.387 2.845,0 0,-10.387 z m 18.819,0 -2.845,0 0,10.387 2.845,0 0,-10.387 z m 18.819,0 -2.845,0 0,10.387 2.845,0 0,-10.387 z m 68.134,0 -0.989,0 -7.648,0 0,23.85 -4.62,0 0,10.193 0,4.237 -15.3,0 -0.852,15.375 -2.454,0 -0.848,-15.375 -15.303,0 0,-4.237 4.156,0 0,-10.193 -5.108,0 0,-23.85 -3.194,0 0,12.916 -9.409,0 0,15.043 -15.976,0 0,-15.043 -2.844,0 0,15.043 -15.973,0 0,-15.043 -2.844,0 0,15.043 -15.974,0 0,-15.043 -2.845,0 0,15.043 -15.974,0 0,-15.043 -9.409,0 0,-12.916 -3.64,0 -4.075,4.237 -26.833,0 18.326,-23.928 41.224,0 88.056,0 29.361,0 c 2.19,0 3.965,1.777 3.965,3.967 l 0,3.307 0,0.755 0,7.694 0,3.968 -2.976,0 z"
           id="path3082"
           style="fill:#231f20;fill-opacity:1;fill-rule:nonzero;stroke:none" /><g
           transform="translate(136.0225,302.5576)"
           id="g3084"><path
             d="m 0,0 c -6.234,0 -11.284,5.053 -11.284,11.285 0,6.231 5.05,11.281 11.284,11.281 6.231,0 11.283,-5.05 11.283,-11.281 C 11.283,5.053 6.231,0 0,0 m 0,46.008 c -19.18,0 -34.726,-15.547 -34.726,-34.723 0,-19.18 15.546,-34.726 34.726,-34.726 19.176,0 34.723,15.546 34.723,34.726 0,19.176 -15.547,34.723 -34.723,34.723"
             id="path3086"
             style="fill:#231f20;fill-opacity:1;fill-rule:nonzero;stroke:none" /></g><g
           transform="translate(136.0225,315.6787)"
           id="g3088"><path
             d="m 0,0 c -1.014,0 -1.84,-0.822 -1.84,-1.836 0,-1.016 0.826,-1.838 1.84,-1.838 1.014,0 1.837,0.822 1.837,1.838 C 1.837,-0.822 1.014,0 0,0"
             id="path3090"
             style="fill:#231f20;fill-opacity:1;fill-rule:nonzero;stroke:none" /></g><path
           d="m 663.54,234.267 -512.854,0 0,112.08 512.854,0 0,-112.08 z"
           id="path3092"
           style="fill:#231f20;fill-opacity:1;fill-rule:nonzero;stroke:none" /><g
           transform="translate(700.5723,376.3701)"
           id="g3094"><path
             d="m 0,0 0,-9.469 -2.614,0 0,9.469 -3.613,0 0,2.408 9.843,0 L 3.616,0 0,0 z"
             id="path3096"
             style="fill:#231f20;fill-opacity:1;fill-rule:nonzero;stroke:none" /></g><g
           transform="translate(716.4873,366.9014)"
           id="g3098"><path
             d="m 0,0 0,7.756 -3.34,-5.076 -0.069,0 -3.309,5.025 0,-7.705 -2.563,0 0,11.877 2.819,0 3.122,-5.022 3.122,5.022 2.816,0 L 2.598,0 0,0 z"
             id="path3100"
             style="fill:#231f20;fill-opacity:1;fill-rule:nonzero;stroke:none" /></g><g
           transform="translate(490.5967,393.5029)"
           id="g3102"><path
             d="m 0,0 c -2.332,2.486 -6.186,3.73 -10.185,2.939 -4.003,-0.775 -7.104,-3.375 -8.332,-6.556 2.331,-2.477 6.187,-3.715 10.184,-2.936 C -4.331,-5.773 -1.222,-3.172 0,0"
             id="path3104"
             style="fill:#231f20;fill-opacity:1;fill-rule:nonzero;stroke:none" /></g><g
           transform="translate(455.7178,364.1299)"
           id="g3106"><path
             d="M 0,0 C 3.125,1.342 5.613,4.537 6.243,8.564 6.884,12.594 5.504,16.396 2.938,18.635 -0.189,17.297 -2.673,14.098 -3.311,10.076 -3.943,6.045 -2.565,2.24 0,0"
             id="path3108"
             style="fill:#231f20;fill-opacity:1;fill-rule:nonzero;stroke:none" /></g><g
           transform="translate(413.2285,378.2646)"
           id="g3110"><path
             d="M 0,0 C 1.309,3.139 0.866,7.164 -1.492,10.488 -3.847,13.822 -7.489,15.586 -10.89,15.4 -12.196,12.262 -11.745,8.236 -9.393,4.908 -7.041,1.576 -3.398,-0.187 0,0"
             id="path3112"
             style="fill:#231f20;fill-opacity:1;fill-rule:nonzero;stroke:none" /></g><g
           transform="translate(368.6201,419.4326)"
           id="g3114"><path
             d="m 0,0 c -0.061,3.4 -2.086,6.908 -5.576,9.016 -3.493,2.105 -7.538,2.259 -10.578,0.724 0.057,-3.398 2.09,-6.906 5.577,-9.011 C -7.081,-1.377 -3.037,-1.529 0,0"
             id="path3116"
             style="fill:#231f20;fill-opacity:1;fill-rule:nonzero;stroke:none" /></g><g
           transform="translate(436.0781,347.4717)"
           id="g3118"><path
             d="m 0,0 c 2.078,2.695 2.69,6.697 1.276,10.52 -1.414,3.832 -4.47,6.476 -7.801,7.181 C -8.603,15.004 -9.214,11 -7.804,7.176 -6.391,3.35 -3.328,0.705 0,0"
             id="path3120"
             style="fill:#231f20;fill-opacity:1;fill-rule:nonzero;stroke:none" /></g><g
           transform="translate(469.5186,398.1182)"
           id="g3122"><path
             d="m 0,0 c -2.33,2.479 -6.187,3.723 -10.183,2.939 -4.005,-0.783 -7.107,-3.382 -8.334,-6.56 2.332,-2.477 6.187,-3.717 10.183,-2.938 C -4.332,-5.775 -1.226,-3.178 0,0"
             id="path3124"
             style="fill:#231f20;fill-opacity:1;fill-rule:nonzero;stroke:none" /></g><g
           transform="translate(377.2246,446.2158)"
           id="g3126"><path
             d="m 0,0 c -3.271,-0.947 -6.126,-3.818 -7.243,-7.734 -1.123,-3.924 -0.216,-7.87 2.058,-10.403 3.266,0.946 6.122,3.819 7.243,7.739 C 3.181,-6.477 2.272,-2.529 0,0"
             id="path3128"
             style="fill:#231f20;fill-opacity:1;fill-rule:nonzero;stroke:none" /></g><g
           transform="translate(447.9004,420.7764)"
           id="g3130"><path
             d="m 0,0 c -3.129,-1.338 -5.619,-4.535 -6.249,-8.559 -0.639,-4.029 0.739,-7.839 3.307,-10.074 3.127,1.338 5.613,4.533 6.246,8.557 C 3.945,-6.039 2.562,-2.236 0,0"
             id="path3132"
             style="fill:#231f20;fill-opacity:1;fill-rule:nonzero;stroke:none" /></g><g
           transform="translate(431.7305,452.7666)"
           id="g3134"><path
             d="m 0,0 c -3.394,0.219 -7.06,-1.512 -9.442,-4.816 -2.387,-3.309 -2.876,-7.327 -1.6,-10.481 3.396,-0.219 7.06,1.51 9.44,4.817 C 0.786,-7.172 1.276,-3.154 0,0"
             id="path3136"
             style="fill:#231f20;fill-opacity:1;fill-rule:nonzero;stroke:none" /></g><g
           transform="translate(401.7393,439.8564)"
           id="g3138"><path
             d="m 0,0 c -1.055,-3.229 -0.3,-7.211 2.303,-10.34 2.604,-3.144 6.373,-4.621 9.749,-4.174 1.059,3.235 0.303,7.211 -2.3,10.348 C 7.146,-1.029 3.378,0.451 0,0"
             id="path3140"
             style="fill:#231f20;fill-opacity:1;fill-rule:nonzero;stroke:none" /></g><g
           transform="translate(395.2061,374.0068)"
           id="g3142"><path
             d="m 0,0 c -3.129,-1.336 -5.617,-4.531 -6.252,-8.555 -0.633,-4.031 0.74,-7.838 3.307,-10.076 3.127,1.338 5.615,4.535 6.254,8.563 C 3.94,-6.047 2.563,-2.234 0,0"
             id="path3144"
             style="fill:#231f20;fill-opacity:1;fill-rule:nonzero;stroke:none" /></g><g
           transform="translate(389.2764,433.9482)"
           id="g3146"><path
             d="m 0,0 c -3.128,-1.338 -5.615,-4.535 -6.249,-8.561 -0.641,-4.027 0.743,-7.83 3.306,-10.076 3.128,1.344 5.614,4.539 6.252,8.567 C 3.943,-6.041 2.563,-2.236 0,0"
             id="path3148"
             style="fill:#231f20;fill-opacity:1;fill-rule:nonzero;stroke:none" /></g><g
           transform="translate(356.4795,357.3389)"
           id="g3150"><path
             d="M 0,0 C 3.202,1.133 5.892,4.168 6.78,8.143 7.678,12.127 6.537,16.01 4.121,18.406 0.916,17.27 -1.77,14.24 -2.662,10.26 -3.553,6.281 -2.417,2.395 0,0"
             id="path3152"
             style="fill:#231f20;fill-opacity:1;fill-rule:nonzero;stroke:none" /></g><g
           transform="translate(343.1357,387.6748)"
           id="g3154"><path
             d="m 0,0 c 0.672,-3.334 3.289,-6.426 7.098,-7.867 3.815,-1.453 7.823,-0.879 10.539,1.172 -0.669,3.334 -3.288,6.424 -7.1,7.869 C 6.725,2.623 2.717,2.053 0,0"
             id="path3156"
             style="fill:#231f20;fill-opacity:1;fill-rule:nonzero;stroke:none" /></g><g
           transform="translate(438.6943,428.7803)"
           id="g3158"><path
             d="m 0,0 c 0,-3.82 -3.538,-6.916 -7.902,-6.916 -4.366,0 -7.907,3.096 -7.907,6.916 0,3.822 3.541,6.916 7.907,6.916 C -3.538,6.916 0,3.822 0,0"
             id="path3160"
             style="fill:#231f20;fill-opacity:1;fill-rule:nonzero;stroke:none" /></g><g
           transform="translate(375.4609,401.4463)"
           id="g3162"><path
             d="m 0,0 c 0,-3.822 -3.54,-6.92 -7.905,-6.92 -4.366,0 -7.906,3.098 -7.906,6.92 0,3.814 3.54,6.916 7.906,6.916 C -3.54,6.916 0,3.814 0,0"
             id="path3164"
             style="fill:#231f20;fill-opacity:1;fill-rule:nonzero;stroke:none" /></g><g
           transform="translate(396.5381,394.2002)"
           id="g3166"><path
             d="m 0,0 c 0,-3.816 -3.537,-6.914 -7.904,-6.914 -4.366,0 -7.905,3.098 -7.905,6.914 0,3.818 3.539,6.916 7.905,6.916 C -3.537,6.916 0,3.818 0,0"
             id="path3168"
             style="fill:#231f20;fill-opacity:1;fill-rule:nonzero;stroke:none" /></g><g
           transform="translate(381.3672,363.9854)"
           id="g3170"><path
             d="m 0,0 c -1.552,-3.492 -6.04,-4.887 -10.034,-3.111 -3.988,1.773 -5.965,6.039 -4.41,9.529 1.548,3.492 6.043,4.883 10.029,3.111 C -0.428,7.754 1.553,3.488 0,0"
             id="path3172"
             style="fill:#231f20;fill-opacity:1;fill-rule:nonzero;stroke:none" /></g><g
           transform="translate(438.6719,399.5518)"
           id="g3174"><path
             d="m 0,0 c -1.552,-3.492 -6.042,-4.885 -10.032,-3.109 -3.991,1.775 -5.965,6.041 -4.414,9.533 1.554,3.486 6.043,4.879 10.033,3.109 C -0.426,7.756 1.552,3.494 0,0"
             id="path3176"
             style="fill:#231f20;fill-opacity:1;fill-rule:nonzero;stroke:none" /></g><g
           transform="translate(479.4014,415.3799)"
           id="g3178"><path
             d="m 0,0 c 2.597,-2.803 2.105,-7.48 -1.096,-10.449 -3.203,-2.967 -7.904,-3.094 -10.498,-0.291 -2.599,2.799 -2.108,7.478 1.098,10.445 C -7.292,2.67 -2.59,2.803 0,0"
             id="path3180"
             style="fill:#231f20;fill-opacity:1;fill-rule:nonzero;stroke:none" /></g><g
           transform="translate(446.4678,379.8076)"
           id="g3182"><path
             d="m 0,0 c 2.601,-2.801 2.105,-7.479 -1.099,-10.441 -3.202,-2.967 -7.902,-3.098 -10.497,-0.299 -2.594,2.804 -2.102,7.48 1.099,10.445 C -7.293,2.672 -2.594,2.805 0,0"
             id="path3184"
             style="fill:#231f20;fill-opacity:1;fill-rule:nonzero;stroke:none" /></g><g
           transform="translate(410.6201,414.7393)"
           id="g3186"><path
             d="m 0,0 c -1.22,-3.623 -5.558,-5.432 -9.695,-4.041 -4.141,1.391 -6.508,5.453 -5.294,9.074 1.217,3.617 5.554,5.428 9.695,4.039 C -1.155,7.682 1.211,3.619 0,0"
             id="path3188"
             style="fill:#231f20;fill-opacity:1;fill-rule:nonzero;stroke:none" /></g><g
           transform="translate(479.2666,376.5068)"
           id="g3190"><path
             d="m 0,0 c 1.793,-3.373 0.125,-7.77 -3.731,-9.82 -3.853,-2.049 -8.43,-0.977 -10.226,2.39 -1.795,3.373 -0.125,7.77 3.728,9.821 C -6.372,4.441 -1.794,3.371 0,0"
             id="path3192"
             style="fill:#231f20;fill-opacity:1;fill-rule:nonzero;stroke:none" /></g><g
           transform="translate(431.4092,324.4697)"
           id="g3194"><path
             d="m 0,0 c -3.271,0.326 -6.746,0.494 -10.355,0.494 -3.475,0 -6.832,-0.16 -9.996,-0.463 3.002,8.949 4.997,22.338 4.904,27.416 -0.116,6.321 1.058,14.076 -6.682,18.996 -5.469,3.479 -15.852,9.059 -28.42,9.436 -1.494,-2.275 -2.664,-4.191 -3.549,-3.609 -0.907,0.597 -0.115,1.919 1.033,3.617 -4.493,-0.121 -9.247,-0.881 -14.092,-2.756 -2.937,-1.137 -4.093,1.611 0.824,2.91 1.225,0.385 5.228,1.455 7.812,1.813 -1.167,2.267 -2.114,4.084 -1.213,4.537 1.229,0.623 2.121,-1.719 3.414,-4.286 9.543,0.926 24.73,0.026 37.709,-9.898 4.925,-3.875 4.496,0.891 4.496,3.93 0,5.111 0.722,10.414 -1.098,13.742 -2.663,4.197 -7.011,5.82 -10.764,7.666 -5.528,2.725 -10.129,4.885 -15.402,6.135 -6.439,1.529 -10.634,5.869 -13.726,11.215 -2.809,-0.428 -5.161,-0.905 -5.325,0.171 -0.181,1.196 1.705,1.432 4.078,1.754 -1.468,2.405 -2.531,4.682 -3.07,6.395 -0.786,2.687 1.191,3.836 2.437,0.654 1.102,-2.816 3.917,-10.914 11.123,-15.213 0.716,2.354 1.288,4.209 2.229,3.92 1.231,-0.381 0.45,-2.418 -0.351,-4.922 1.393,-0.672 2.94,-1.166 4.613,-1.677 8.189,-2.498 15.074,-6.102 20.919,-9.446 2.459,-1.406 4.06,-2.871 4.06,1.707 0,4.571 0.354,29.549 0.354,32.362 0,3.252 2.814,3.539 2.814,0.052 0,-3.515 1.056,-46.056 1.056,-48.873 0,-2.81 -0.187,-6.508 3.164,-2.537 3.442,4.078 23.266,20.533 32.642,28.504 -1.176,2.301 -2.148,4.133 -1.235,4.6 1.045,0.529 1.855,-1.106 2.872,-3.188 0.987,0.854 1.709,1.647 2.306,2.094 3.314,2.492 5.342,1.051 1.677,-1.84 C 28.711,83.404 10.586,67.906 8.477,65.795 6.856,64.436 8.468,64.063 13.748,64.414 c 3.834,0.256 13.015,-0.158 19.528,-0.869 0.746,2.469 1.334,4.467 2.304,4.168 1.149,-0.358 0.543,-2.152 -0.187,-4.426 1.523,-0.205 2.793,-0.474 3.688,-0.658 2.494,-0.51 2.063,-3.4 -1.053,-2.463 C 32.707,61.768 11.919,62.262 5.663,60.869 0.736,58.406 -8.061,48.301 -8.061,42.578 -8.061,31.166 -4.117,6.738 0,0"
             id="path3196"
             style="fill:#231f20;fill-opacity:1;fill-rule:nonzero;stroke:none" /></g><g
           transform="translate(692.2441,270.8252)"
           id="g3198"><path
             d="m 0,0 c -2.721,-11.002 -13.843,-17.711 -24.841,-14.99 -10.999,2.719 -17.711,13.84 -14.99,24.84 2.719,10.996 13.842,17.709 24.84,14.99 C -3.992,22.119 2.72,10.996 0,0"
             id="path3200"
             style="fill:#ffffff;fill-opacity:1;fill-rule:nonzero;stroke:none" /></g><g
           transform="translate(682.665,260.085)"
           id="g3202"><path
             d="m 0,0 c -3.441,-2.313 -7.668,-3.492 -12.107,-3.049 -4.437,0.442 -8.351,2.43 -11.268,5.375 -3.74,3.776 -5.839,9.129 -5.27,14.82 0.564,5.692 3.673,10.526 8.084,13.493 3.441,2.31 7.669,3.488 12.106,3.045 4.437,-0.44 8.352,-2.426 11.27,-5.37 C 6.557,24.537 8.652,19.186 8.087,13.492 7.521,7.801 4.411,2.965 0,0 m 3.225,32.434 1.918,19.293 c 0.228,2.304 -1.454,4.359 -3.761,4.587 l -15.028,1.497 c -2.303,0.228 -4.36,-1.457 -4.587,-3.76 l -1.918,-19.293 c -6.403,-3.264 -11.072,-9.613 -11.834,-17.279 -0.765,-7.67 2.565,-14.813 8.2,-19.276 l -1.916,-19.289 c -0.233,-2.309 1.453,-4.359 3.756,-4.59 l 15.028,-1.496 c 2.306,-0.228 4.358,1.453 4.591,3.762 l 1.917,19.291 c 6.402,3.264 11.071,9.613 11.834,17.279 0.763,7.668 -2.566,14.813 -8.2,19.274"
             id="path3204"
             style="fill:#231f20;fill-opacity:1;fill-rule:nonzero;stroke:none" /></g><g
           transform="translate(685.0703,284.2607)"
           id="g3206"><path
             d="m 0,0 c -0.363,0.035 -0.708,-0.051 -1.003,-0.217 l 0,0.002 -11.357,-6.523 -5.94,6.441 -0.008,0 c -0.27,0.289 -0.636,0.494 -1.064,0.535 -0.918,0.09 -1.74,-0.582 -1.833,-1.504 -0.048,-0.494 0.128,-0.961 0.441,-1.298 l -0.006,-0.006 6.852,-7.424 0.003,0.002 c 0.271,-0.287 0.637,-0.494 1.062,-0.535 0.365,-0.036 0.707,0.05 1,0.218 l -10e-4,-0.004 12.519,7.186 0.002,0.006 c 0.452,0.258 0.781,0.726 0.835,1.287 C 1.595,-0.916 0.919,-0.092 0,0"
             id="path3208"
             style="fill:#231f20;fill-opacity:1;fill-rule:nonzero;stroke:none" /></g><g
           transform="translate(581.1494,362.8721)"
           id="g3210"><path
             d="m 0,0 c 0,-8.506 -8.707,-15.4 -19.448,-15.4 -10.741,0 -19.448,6.894 -19.448,15.4 0,8.508 8.707,15.402 19.448,15.402 C -8.707,15.402 0,8.508 0,0"
             id="path3212"
             style="fill:#ffffff;fill-opacity:1;fill-rule:nonzero;stroke:none" /></g><g
           transform="translate(561.5439,368.251)"
           id="g3214"><path
             d="m 0,0 c -1.13,1.643 -2.637,2.662 -4.528,3.049 -1.995,0.406 -3.806,0.058 -5.44,-1.02 -1.634,-1.084 -2.653,-2.621 -3.059,-4.599 -0.401,-1.987 -0.061,-3.803 1.016,-5.438 1.082,-1.627 2.615,-2.644 4.615,-3.051 1.89,-0.384 3.675,-0.043 5.355,1.022 1.674,1.074 2.721,2.607 3.123,4.592 C 1.488,-3.465 1.124,-1.646 0,0 m -22.952,-9.027 c -0.277,2.791 -0.127,5.629 0.459,8.519 0.809,3.979 2.318,7.565 4.511,10.742 2.199,3.162 4.889,5.799 8.041,7.889 3.159,2.098 6.624,3.529 10.42,4.316 3.777,0.79 7.662,0.77 11.628,-0.041 5.341,-1.084 9.924,-3.357 13.742,-6.818 3.819,-3.463 6.559,-7.568 8.212,-12.336 1.282,-1.578 2.541,-2.635 3.744,-3.168 0.687,-0.322 1.35,-0.56 1.976,-0.685 0.291,0.039 0.714,0.138 1.267,0.312 0.556,0.172 1.093,0.387 1.609,0.658 0.62,0.248 1.306,0.584 2.04,0.996 0.528,0.272 1.049,0.45 1.532,0.539 0.488,0.098 0.978,0.088 1.471,-0.013 0.506,-0.1 1.086,-0.365 1.757,-0.783 0.662,-0.416 1.103,-0.817 1.311,-1.186 0.197,-0.365 0.331,-0.746 0.331,-1.129 0.014,-0.371 -0.101,-0.73 -0.355,-1.056 l -0.658,-1.85 c -0.019,-0.086 0.008,-0.231 0.049,-0.424 0.125,-0.41 0.394,-0.654 0.845,-0.746 0.274,-0.055 0.639,-0.096 1.094,-0.15 0.467,-0.041 0.936,-0.073 1.401,-0.079 0.569,-0.009 1.113,-0.082 1.66,-0.195 l 4.765,-3.64 2.928,0.531 3.184,-4.467 c 0.154,-0.227 0.353,-0.4 0.599,-0.537 0.162,-0.139 0.384,-0.225 0.66,-0.283 0.266,-0.053 0.65,-0.035 1.129,0.054 0.404,0.112 0.856,0.252 1.366,0.432 0.508,0.176 1.002,0.316 1.494,0.402 0.592,0.159 1.195,0.323 1.789,0.485 l 2.82,-2.127 c 0.163,-0.135 0.372,-0.217 0.643,-0.274 0.554,-0.105 1.004,-0.158 1.394,-0.142 0.302,0.123 0.883,0.308 1.726,0.562 0.862,0.26 1.694,0.539 2.515,0.836 1.017,0.362 2.087,0.752 3.207,1.184 l 2.082,-2.963 c 0.084,-0.02 0.209,-0.1 0.369,-0.219 0.332,-0.256 0.631,-0.418 0.9,-0.476 0.361,-0.073 0.759,0.033 1.198,0.328 0.214,0.144 0.381,0.297 0.513,0.466 l 4.078,1.991 2.375,-2.883 c 0.079,-0.115 0.19,-0.227 0.36,-0.356 0.166,-0.125 0.276,-0.246 0.35,-0.351 0.074,-0.115 0.153,-0.174 0.243,-0.193 l 0.597,0.166 c 0.216,0.142 0.588,0.32 1.1,0.546 0.522,0.219 1.027,0.432 1.531,0.596 0.626,0.256 1.238,0.506 1.861,0.764 l 7.93,-13.768 -14.709,-7.035 -65.381,13.299 c -1.619,-2.402 -3.532,-4.533 -5.747,-6.389 -2.215,-1.853 -4.635,-3.334 -7.271,-4.455 -2.619,-1.105 -5.411,-1.807 -8.333,-2.113 -2.933,-0.299 -5.895,-0.147 -8.875,0.453 -5.153,1.051 -9.615,3.223 -13.38,6.469 -3.763,3.269 -6.49,7.181 -8.2,11.779 -0.985,2.564 -1.619,5.219 -1.897,8.016"
             id="path3216"
             style="fill:#231f20;fill-opacity:1;fill-rule:nonzero;stroke:none" /></g><g
           transform="translate(616.4795,323.4053)"
           id="g3218"><path
             d="M 0,0 C 0,0 11.153,16.877 38.131,17.004 65.108,17.131 77.51,-1.406 77.51,-1.406 77.51,-1.406 1.504,-2.303 0,0"
             id="path3220"
             style="fill:#ffffff;fill-opacity:1;fill-rule:nonzero;stroke:none" /></g><g
           transform="translate(699.8828,313.8467)"
           id="g3222"><path
             d="m 0,0 c 5.902,0 10.69,-4.572 10.69,-10.225 0,-5.64 -4.788,-10.216 -10.69,-10.216 -5.9,0 -10.688,4.576 -10.688,10.216 C -10.688,-4.572 -5.9,0 0,0"
             id="path3224"
             style="fill:#231f20;fill-opacity:1;fill-rule:nonzero;stroke:none" /></g><g
           transform="translate(616.4795,313.8467)"
           id="g3226"><path
             d="m 0,0 c 5.904,0 10.686,-4.572 10.686,-10.225 0,-5.64 -4.782,-10.216 -10.686,-10.216 -5.901,0 -10.686,4.576 -10.686,10.216 C -10.686,-4.572 -5.901,0 0,0"
             id="path3228"
             style="fill:#231f20;fill-opacity:1;fill-rule:nonzero;stroke:none" /></g><g
           transform="translate(623.2959,325.3232)"
           id="g3230"><path
             d="M 0,0 C 4.844,7.828 16.934,11.723 21.465,12.191 21.465,8.139 21.009,4.047 21.009,0 L 0,0 z m 26.043,12.982 c 9.676,1.344 22.76,0.276 32.386,-7.796 l 0,-5.739 c -10.796,0 -21.593,0.418 -32.386,0.418 l 0,13.117 z m -45.848,-36.935 c 0.559,22.584 29.061,17.42 26.079,-1.526 l 57.126,0 c -1.399,18.401 25.973,24.077 26.865,0 12.23,0.387 10.396,6.145 9.921,11.577 -3.558,-0.143 -3.956,13.23 -28.315,14.494 -34.158,29.5 -72.384,12.662 -90.209,-4.969 -4.224,-2.457 -5.398,-4.189 -6.929,-6.111 -1.703,-0.26 -1.959,-0.713 -2.038,-0.899 -1.497,-7.865 0.303,-12.611 7.5,-12.566"
             id="path3232"
             style="fill:#231f20;fill-opacity:1;fill-rule:nonzero;stroke:none" /></g><g
           transform="translate(329.7773,404.7295)"
           id="g3234"><path
             d="m 0,0 c -4.771,3.77 -6.026,5.781 -6.777,7.285 -0.757,1.508 -0.202,3.162 -0.202,3.162 0.109,0.332 0.49,0.604 0.84,0.604 l 1.236,0 c 0.349,0 0.638,0.285 0.638,0.637 l 0,11.023 c 0,0.35 -0.289,0.639 -0.638,0.639 l -22.073,0 c -0.351,0 -0.639,-0.289 -0.639,-0.639 l 0,-11.025 c 0,-0.35 0.288,-0.635 0.639,-0.635 l 11.524,0 c 0.357,0 0.64,-0.289 0.64,-0.641 l 0,-1.48 c 0,-0.354 -0.283,-0.639 -0.64,-0.639 l -8.768,0 c -0.349,0 -0.712,-0.279 -0.801,-0.619 0,0 -0.837,-3.152 -3.344,-5.156 -2.513,-2.012 -10.048,-6.028 -10.048,-13.557 l 0,-41.037 0,-1.276 c 0,0 0,-7.396 8.787,-7.396 l 28.985,0 c 0.35,0 0.923,-0.02 1.275,-0.051 0,0 5.896,-0.453 5.896,9.088 l 0,41.037 c 0,0.352 -0.082,0.914 -0.175,1.252 0,0 -1.584,5.66 -6.355,9.424"
             id="path3236"
             style="fill:#231f20;fill-opacity:1;fill-rule:nonzero;stroke:none" /></g><g
           transform="translate(306.6104,356.4443)"
           id="g3238"><path
             d="m 0,0 -6.854,0.033 c -2.341,0.01 -4.248,-1.877 -4.259,-4.219 -0.011,-2.341 1.877,-4.248 4.218,-4.259 L 0,-8.479 0,0 z"
             id="path3240"
             style="fill:#ffffff;fill-opacity:1;fill-rule:nonzero;stroke:none" /></g><g
           transform="translate(314.9297,356.4775)"
           id="g3242"><path
             d="m 0,0 -6.854,-0.033 0,-8.479 6.896,0.033 c 2.342,0.012 4.229,1.918 4.217,4.26 C 4.248,-1.877 2.341,0.01 0,0"
             id="path3244"
             style="fill:#ffffff;fill-opacity:1;fill-rule:nonzero;stroke:none" /></g><g
           transform="translate(320.3154,354.8232)"
           id="g3246"><path
             d="m 0,0 4.34,-5.305 c 1.483,-1.81 4.152,-2.078 5.965,-0.593 1.812,1.482 2.079,4.152 0.595,5.964 L 6.533,5.402 0,0 z"
             id="path3248"
             style="fill:#ffffff;fill-opacity:1;fill-rule:nonzero;stroke:none" /></g><g
           transform="translate(314.9873,361.2139)"
           id="g3250"><path
             d="m 0,0 4.395,-5.262 6.533,5.403 -4.42,5.293 C 5.008,7.23 2.336,7.473 0.537,5.971 -1.26,4.469 -1.499,1.799 0,0"
             id="path3252"
             style="fill:#ffffff;fill-opacity:1;fill-rule:nonzero;stroke:none" /></g><g
           transform="translate(259.4585,105.0898)"
           id="g3254"><path
             d="M 0,0 5.832,0 8.936,-11.565 12.067,0 l 5.829,0 0,-18.665 -3.5,0 0,16.615 -4.499,-16.615 -1.936,0 -4.496,16.615 0,-16.615 -3.465,0 L 0,0 z"
             id="path3256"
             style="fill:#231f20;fill-opacity:1;fill-rule:nonzero;stroke:none" /></g><g
           transform="translate(287.6792,100.0391)"
           id="g3258"><path
             d="m 0,0 -2.14,-6.515 4.247,0 L 0,0 z m -1.956,5.051 3.894,0 6.077,-18.665 -3.611,0 -1.417,4.38 -5.966,0 -1.413,-4.38 -3.611,0 6.047,18.665 z"
             id="path3260"
             style="fill:#231f20;fill-opacity:1;fill-rule:nonzero;stroke:none" /></g><g
           transform="translate(298.0723,105.0898)"
           id="g3262"><path
             d="m 0,0 3.672,0 0,-8.26 6.731,8.26 4.035,0 -5.83,-7.22 6.263,-11.445 -3.582,0 -4.809,8.809 -2.808,-3.478 0,-5.331 -3.672,0 L 0,0 z"
             id="path3264"
             style="fill:#231f20;fill-opacity:1;fill-rule:nonzero;stroke:none" /></g><g
           transform="translate(315.394,105.0898)"
           id="g3266"><path
             d="m 0,0 12.517,0 0,-3.245 -8.845,0 0,-4.111 5.392,0 0,-2.769 -5.392,0 0,-5.319 8.845,0 0,-3.221 L 0,-18.665 0,0 z"
             id="path3268"
             style="fill:#231f20;fill-opacity:1;fill-rule:nonzero;stroke:none" /></g><g
           transform="translate(342.7207,101.8574)"
           id="g3270"><path
             d="m 0,0 0,-5.063 3.001,0 c 1.123,0 2.058,0.309 2.806,0.927 0.496,0.407 0.744,0.992 0.744,1.757 0,0.707 -0.264,1.28 -0.793,1.72 C 5.229,-0.22 4.343,0 3.099,0 L 0,0 z m -3.708,3.232 5.904,0 c 2.106,0 3.678,-0.17 4.715,-0.512 1.037,-0.341 1.875,-0.938 2.513,-1.787 0.639,-0.85 0.958,-1.889 0.958,-3.118 0,-0.951 -0.183,-1.829 -0.549,-2.634 C 9.548,-5.429 9.115,-5.97 8.534,-6.441 7.952,-6.913 7.369,-7.268 6.783,-7.503 5.791,-7.91 4.62,-8.113 3.27,-8.113 l -3.27,0 0,-7.32 -3.708,0 0,18.665 z"
             id="path3272"
             style="fill:#231f20;fill-opacity:1;fill-rule:nonzero;stroke:none" /></g><g
           transform="translate(359.5371,101.833)"
           id="g3274"><path
             d="m 0,0 0,-5.026 2.94,0 c 1.074,0 1.989,0.304 2.745,0.915 0.496,0.406 0.744,0.971 0.744,1.695 0,0.691 -0.276,1.267 -0.829,1.727 C 5.046,-0.23 4.16,0 2.94,0 L 0,0 z m -3.684,3.257 5.038,0 C 4.062,3.257 5.935,3.054 6.972,2.646 8.009,2.24 8.816,1.569 9.394,0.634 9.971,-0.302 10.26,-1.375 10.26,-2.587 10.26,-3.701 10,-4.622 9.479,-5.35 8.958,-6.078 8.056,-6.702 6.771,-7.223 l 3.357,-8.185 -3.638,0 -3.129,7.503 -3.361,0 0,-7.503 -3.684,0 0,18.665 z"
             id="path3276"
             style="fill:#231f20;fill-opacity:1;fill-rule:nonzero;stroke:none" /></g><g
           transform="translate(380.1558,102.2598)"
           id="g3278"><path
             d="m 0,0 c -1.261,0 -2.302,-0.505 -3.123,-1.513 -0.822,-1.008 -1.232,-2.675 -1.232,-5.002 0,-2.285 0.417,-3.927 1.25,-4.928 0.834,-1 1.901,-1.5 3.203,-1.5 1.235,0 2.264,0.498 3.086,1.494 0.821,0.996 1.232,2.629 1.232,4.898 0,2.537 -0.5,4.322 -1.5,5.356 C 2.143,-0.398 1.171,0 0,0 M -0.366,3.196 C 1.391,3.196 2.806,2.903 3.879,2.317 5.286,1.553 6.36,0.455 7.1,-0.977 c 0.74,-1.43 1.11,-3.309 1.11,-5.635 0,-3.156 -0.744,-5.543 -2.232,-7.161 -1.489,-1.619 -3.457,-2.428 -5.905,-2.428 -2.472,0 -4.471,0.823 -5.996,2.471 -1.525,1.646 -2.287,4.051 -2.287,7.215 0,1.904 0.309,3.612 0.927,5.124 0.333,0.837 0.844,1.619 1.531,2.342 0.687,0.724 1.488,1.279 2.403,1.665 0.915,0.387 1.91,0.58 2.983,0.58"
             id="path3280"
             style="fill:#231f20;fill-opacity:1;fill-rule:nonzero;stroke:none" /></g><g
           transform="translate(395.2231,101.9424)"
           id="g3282"><path
             d="m 0,0 0,-12.248 2.538,0 c 0.902,0 1.706,0.242 2.409,0.726 0.703,0.484 1.246,1.12 1.629,1.909 0.552,1.122 0.829,2.346 0.829,3.672 0,1.805 -0.525,3.247 -1.573,4.325 C 4.782,-0.539 3.436,0 1.793,0 L 0,0 z m -3.721,3.147 6.783,0 c 1.61,0 3.05,-0.392 4.319,-1.177 1.268,-0.784 2.234,-1.895 2.897,-3.33 0.663,-1.436 0.994,-2.992 0.994,-4.666 0,-1.667 -0.286,-3.17 -0.86,-4.508 -0.573,-1.338 -1.307,-2.389 -2.202,-3.154 -0.642,-0.544 -1.476,-0.986 -2.501,-1.324 -1.024,-0.337 -2.106,-0.506 -3.245,-0.506 l -6.185,0 0,18.665 z"
             id="path3284"
             style="fill:#231f20;fill-opacity:1;fill-rule:nonzero;stroke:none" /></g><g
           transform="translate(409.3853,105.0898)"
           id="g3286"><path
             d="m 0,0 3.685,0 0,-11.395 c 0,-1.422 0.329,-2.488 0.987,-3.196 0.659,-0.707 1.554,-1.06 2.684,-1.06 0.724,0 1.367,0.141 1.928,0.426 0.561,0.285 1.01,0.748 1.348,1.391 0.337,0.643 0.506,1.456 0.506,2.439 l 0,11.395 3.696,0 0,-11.931 c 0,-2.277 -0.622,-4.03 -1.866,-5.257 -1.244,-1.229 -3.066,-1.843 -5.465,-1.843 -1.383,0 -2.672,0.219 -3.867,0.659 -0.635,0.235 -1.163,0.545 -1.586,0.927 -0.586,0.537 -1.074,1.221 -1.464,2.055 C 0.195,-14.556 0,-13.436 0,-12.028 L 0,0 z"
             id="path3288"
             style="fill:#231f20;fill-opacity:1;fill-rule:nonzero;stroke:none" /></g><g
           transform="translate(442.2627,91.7686)"
           id="g3290"><path
             d="m 0,0 c -0.261,-1.05 -0.59,-1.884 -0.988,-2.501 -0.643,-1.001 -1.474,-1.785 -2.494,-2.354 -1.022,-0.57 -2.203,-0.855 -3.544,-0.855 -1.432,0 -2.798,0.36 -4.1,1.08 -1.301,0.72 -2.289,1.795 -2.964,3.227 -0.676,1.431 -1.013,3.119 -1.013,5.062 0,2.026 0.344,3.815 1.032,5.368 0.686,1.553 1.684,2.718 2.994,3.495 1.309,0.777 2.688,1.166 4.136,1.166 1.065,0 2.108,-0.237 3.128,-0.709 1.021,-0.471 1.865,-1.138 2.532,-2 0.464,-0.602 0.834,-1.399 1.11,-2.391 L -3.587,7.612 c -0.244,1.008 -0.677,1.771 -1.299,2.287 -0.622,0.517 -1.368,0.775 -2.238,0.775 -1.302,0 -2.314,-0.63 -3.038,-1.891 -0.724,-1.261 -1.085,-2.908 -1.085,-4.94 0,-1.285 0.166,-2.412 0.5,-3.38 0.333,-0.968 0.793,-1.682 1.378,-2.141 0.586,-0.46 1.221,-0.689 1.903,-0.689 1.025,0 1.94,0.37 2.745,1.11 0.569,0.513 1.017,1.252 1.342,2.22 L 0,0 z"
             id="path3292"
             style="fill:#231f20;fill-opacity:1;fill-rule:nonzero;stroke:none" /></g><g
           transform="translate(443.9346,105.0898)"
           id="g3294"><path
             d="m 0,0 14.151,0 0,-3.208 -5.257,0 0,-15.457 -3.661,0 0,15.457 L 0,-3.208 0,0 z"
             id="path3296"
             style="fill:#231f20;fill-opacity:1;fill-rule:nonzero;stroke:none" /></g><g
           transform="translate(463.0557,91.6465)"
           id="g3298"><path
             d="M 0,0 C 0.617,-0.952 1.226,-1.615 1.823,-1.989 2.421,-2.363 3.127,-2.55 3.94,-2.55 c 0.976,0 1.737,0.241 2.282,0.726 0.544,0.483 0.817,1.055 0.817,1.714 0,0.577 -0.216,1.086 -0.646,1.525 -0.44,0.439 -1.42,0.861 -2.941,1.269 -2.074,0.545 -3.558,1.212 -4.453,2.001 -1.114,0.992 -1.671,2.219 -1.671,3.683 0,1.57 0.557,2.869 1.671,3.898 1.114,1.029 2.644,1.544 4.587,1.544 1.106,0 2.093,-0.186 2.959,-0.556 0.866,-0.37 1.6,-0.844 2.201,-1.421 C 9.137,11.45 9.527,10.926 9.918,10.26 L 6.844,9.003 C 6.323,9.743 5.79,10.284 5.245,10.625 4.7,10.967 4.095,11.138 3.428,11.138 2.606,11.138 1.949,10.908 1.457,10.448 0.965,9.989 0.72,9.434 0.72,8.783 0.72,8.263 0.923,7.815 1.329,7.441 1.728,7.067 2.729,6.681 4.33,6.282 5.933,5.884 7.146,5.42 7.972,4.892 8.797,4.363 9.415,3.676 9.826,2.83 c 0.41,-0.846 0.616,-1.716 0.616,-2.611 0,-0.944 -0.264,-1.891 -0.793,-2.842 C 9.12,-3.575 8.336,-4.307 7.295,-4.819 6.254,-5.331 5.059,-5.588 3.708,-5.588 c -1.276,0 -2.385,0.214 -3.324,0.641 -0.94,0.426 -1.735,1.002 -2.385,1.726 -0.423,0.463 -0.85,1.11 -1.281,1.94 L 0,0 z"
             id="path3300"
             style="fill:#231f20;fill-opacity:1;fill-rule:nonzero;stroke:none" /></g><g
           transform="translate(487.2461,91.6465)"
           id="g3302"><path
             d="M 0,0 C 0.617,-0.952 1.226,-1.615 1.823,-1.989 2.421,-2.363 3.127,-2.55 3.94,-2.55 c 0.976,0 1.737,0.241 2.282,0.726 0.544,0.483 0.817,1.055 0.817,1.714 0,0.577 -0.216,1.086 -0.646,1.525 -0.44,0.439 -1.42,0.861 -2.941,1.269 -2.074,0.545 -3.558,1.212 -4.453,2.001 -1.114,0.992 -1.671,2.219 -1.671,3.683 0,1.57 0.557,2.869 1.671,3.898 1.114,1.029 2.644,1.544 4.587,1.544 1.106,0 2.093,-0.186 2.959,-0.556 0.866,-0.37 1.6,-0.844 2.201,-1.421 C 9.137,11.45 9.527,10.926 9.918,10.26 L 6.844,9.003 C 6.323,9.743 5.79,10.284 5.245,10.625 4.7,10.967 4.095,11.138 3.428,11.138 2.606,11.138 1.949,10.908 1.457,10.448 0.965,9.989 0.72,9.434 0.72,8.783 0.72,8.263 0.923,7.815 1.329,7.441 1.728,7.067 2.729,6.681 4.33,6.282 5.933,5.884 7.146,5.42 7.972,4.892 8.797,4.363 9.415,3.676 9.826,2.83 c 0.41,-0.846 0.616,-1.716 0.616,-2.611 0,-0.944 -0.264,-1.891 -0.793,-2.842 C 9.12,-3.575 8.336,-4.307 7.295,-4.819 6.254,-5.331 5.059,-5.588 3.708,-5.588 c -1.276,0 -2.385,0.214 -3.324,0.641 -0.94,0.426 -1.735,1.002 -2.385,1.726 -0.423,0.463 -0.85,1.11 -1.281,1.94 L 0,0 z"
             id="path3304"
             style="fill:#231f20;fill-opacity:1;fill-rule:nonzero;stroke:none" /></g><g
           transform="translate(500.7012,105.0898)"
           id="g3306"><path
             d="M 0,0 5.831,0 8.936,-11.565 12.066,0 l 5.83,0 0,-18.665 -3.501,0 0,16.615 -4.499,-16.615 -1.935,0 -4.497,16.615 0,-16.615 -3.464,0 L 0,0 z"
             id="path3308"
             style="fill:#231f20;fill-opacity:1;fill-rule:nonzero;stroke:none" /></g><g
           transform="translate(528.9209,100.0391)"
           id="g3310"><path
             d="m 0,0 -2.14,-6.515 4.247,0 L 0,0 z m -1.956,5.051 3.894,0 6.078,-18.665 -3.612,0 -1.417,4.38 -5.966,0 -1.413,-4.38 -3.611,0 6.047,18.665 z"
             id="path3312"
             style="fill:#231f20;fill-opacity:1;fill-rule:nonzero;stroke:none" /></g><g
           transform="translate(543.0107,101.833)"
           id="g3314"><path
             d="m 0,0 0,-5.026 2.939,0 c 1.075,0 1.99,0.304 2.746,0.915 0.496,0.406 0.744,0.971 0.744,1.695 0,0.691 -0.277,1.267 -0.829,1.727 C 5.046,-0.23 4.159,0 2.939,0 L 0,0 z m -3.685,3.257 5.039,0 C 4.062,3.257 5.935,3.054 6.972,2.646 8.009,2.24 8.815,1.569 9.394,0.634 9.971,-0.302 10.26,-1.375 10.26,-2.587 10.26,-3.701 9.999,-4.622 9.479,-5.35 8.958,-6.078 8.056,-6.702 6.771,-7.223 l 3.356,-8.185 -3.638,0 -3.129,7.503 -3.36,0 0,-7.503 -3.685,0 0,18.665 z"
             id="path3316"
             style="fill:#231f20;fill-opacity:1;fill-rule:nonzero;stroke:none" /></g><g
           transform="translate(555.2012,105.0898)"
           id="g3318"><path
             d="m 0,0 14.151,0 0,-3.208 -5.257,0 0,-15.457 -3.661,0 0,15.457 L 0,-3.208 0,0 z"
             id="path3320"
             style="fill:#231f20;fill-opacity:1;fill-rule:nonzero;stroke:none" /></g><g
           transform="translate(274.9775,204.5928)"
           id="g3322"><path
             d="m 0,0 c 0.338,-2.641 1.736,-4.896 3.938,-6.357 4.205,-2.791 10.981,-2.27 15.259,4.187 l 15.338,23.141 c 3.859,5.822 8.84,6.271 12.058,4.136 3.376,-2.234 5.074,-7.554 0.837,-13.949 l -20.076,-30.295 -0.925,0.614 -5.848,-6.715 c -4.899,1.873 -10.262,0.625 -12.893,-3.346 L 0.72,-39.096 3.963,-41.248 -2.04,-50.309 c -0.651,-0.976 -0.249,-2.382 0.884,-3.134 1.136,-0.756 2.584,-0.577 3.234,0.406 l 6.002,9.058 8.229,-5.451 -6.003,-9.056 c -0.65,-0.983 -0.253,-2.387 0.882,-3.139 1.137,-0.754 2.583,-0.572 3.232,0.406 l 6.002,9.063 3.441,-2.282 6.967,10.514 c 2.659,4.016 1.674,9.508 -2.055,13.293 l 4.081,7.846 -1.696,1.123 20.078,30.297 c 5.706,8.611 3.25,16.719 -2.116,20.279 -5.11,3.389 -13.073,2.611 -18.397,-5.424 L 15.391,0.35 C 12.754,-3.625 8.824,-4.113 6.46,-2.551 5.7,-2.045 4.744,-1.088 4.528,0.58 4.309,2.283 4.926,4.283 6.308,6.367 L 28.888,40.438 25.081,42.963 2.5,8.895 C 0.501,5.875 -0.36,2.803 0,0"
             id="path3324"
             style="fill:#231f20;fill-opacity:1;fill-rule:nonzero;stroke:none" /></g><g
           transform="translate(520.0381,229.7637)"
           id="g3326"><path
             d="M 0,0 C 0.081,7.896 6.544,14.235 14.44,14.155 22.339,14.076 28.676,7.607 28.594,-0.285 28.514,-8.186 22.05,-14.52 14.153,-14.44 6.257,-14.36 -0.08,-7.896 0,0 m -42.546,-53.098 c 7.902,0.796 18.184,3.306 33.161,11.77 14.459,8.165 21.972,7.326 39.134,3.561 15.558,-3.414 21.473,5.836 23.391,11.634 1.484,4.48 2.046,12.486 2.236,18.344 l 102.307,0.727 c 10.046,-0.102 4.154,-4.341 14.546,-4.448 0.183,0.002 0.386,0.013 0.575,0.024 -0.902,-0.497 -1.542,-1.411 -1.555,-2.516 -0.015,-1.623 1.289,-2.956 2.913,-2.973 1.623,-0.014 2.954,1.291 2.971,2.914 0.013,1.153 -0.66,2.138 -1.629,2.628 1.821,0.015 3.741,-0.02 5.71,-0.1 -0.94,-0.482 -1.604,-1.425 -1.614,-2.555 -0.017,-1.62 1.285,-2.951 2.912,-2.969 1.622,-0.016 2.953,1.287 2.967,2.912 0.013,1.046 -0.557,1.933 -1.376,2.461 1.622,-0.1 3.232,-0.22 4.787,-0.371 -0.99,-0.464 -1.694,-1.444 -1.706,-2.612 -0.017,-1.624 1.287,-2.955 2.912,-2.97 1.626,-0.014 2.957,1.289 2.974,2.909 0.008,1.053 -0.568,1.937 -1.394,2.47 5.207,-0.038 8.794,0.327 8.896,10.418 0.105,10.407 -3.538,10.265 -8.745,10.303 0.869,0.501 1.488,1.399 1.496,2.477 0.02,1.626 -1.285,2.957 -2.911,2.973 -1.623,0.014 -2.954,-1.29 -2.971,-2.912 -0.012,-1.209 0.711,-2.256 1.751,-2.717 -1.637,-0.123 -3.336,-0.218 -5.069,-0.263 0.934,0.481 1.596,1.42 1.606,2.544 0.017,1.624 -1.289,2.956 -2.912,2.972 -1.622,0.017 -2.955,-1.287 -2.967,-2.911 -0.017,-1.159 0.664,-2.147 1.632,-2.637 -1.916,-0.009 -3.834,0.021 -5.693,0.123 0.922,0.487 1.583,1.422 1.593,2.536 0.014,1.627 -1.291,2.956 -2.913,2.973 -1.623,0.017 -2.954,-1.287 -2.971,-2.911 -0.011,-0.981 0.497,-1.814 1.229,-2.355 -10.523,0.103 -4.992,-3.666 -14.659,-3.567 L 55.5,7.761 c -0.104,5.732 -0.541,13.065 -1.847,17.301 -1.802,5.835 -7.527,15.202 -23.152,12.101 -17.232,-3.419 -24.764,-4.104 -39.054,4.348 -14.807,8.76 -25.036,11.476 -32.92,12.434 -10.46,1.269 -24.69,-2.316 -32.247,-13.174 -7.705,-11.075 -8.84,-22.949 -9.009,-39.941 -0.171,-16.985 0.723,-28.879 8.203,-40.11 7.338,-11.013 21.493,-14.876 31.98,-13.818"
             id="path3328"
             style="fill:#231f20;fill-opacity:1;fill-rule:nonzero;stroke:none" /></g><g
           transform="translate(519.9375,229.7139)"
           id="g3330"><path
             d="m 0,0 c 0,7.978 6.469,14.446 14.446,14.446 7.981,0 14.45,-6.468 14.45,-14.446 0,-7.98 -6.469,-14.449 -14.45,-14.449 C 6.469,-14.449 0,-7.98 0,0"
             id="path3332"
             style="fill:#ffffff;fill-opacity:1;fill-rule:nonzero;stroke:none" /></g><path
           d="m 276.345,197.899 -65,0 0,43.932 65,0 0,-43.932 z"
           id="path3334"
           style="fill:#ffffff;fill-opacity:1;fill-rule:nonzero;stroke:none" /><g
           transform="translate(253.9268,200.9893)"
           id="g3336"><path
             d="m 0,0 c -10.45,0 -18.925,8.477 -18.925,18.926 0,10.449 8.475,18.926 18.925,18.926 10.449,0 18.924,-8.475 18.926,-18.926 C 18.926,8.477 10.449,0 0,0 m -25.233,34.064 c 0,-1.392 -1.13,-2.521 -2.524,-2.521 l -7.569,0 c -1.394,0 -2.524,1.129 -2.524,2.521 l 0,1.262 c 0,1.395 1.13,2.526 2.524,2.526 l 7.569,0 c 1.394,0 2.524,-1.129 2.524,-2.526 l 0,-1.262 z m 44.157,10.096 -3.785,0 c 0,1.393 -1.129,2.524 -2.523,2.524 l -2.524,0 c -1.393,0 -2.523,-1.131 -2.523,-2.524 l -23.971,0 c -2.524,0 -2.524,6.307 -5.047,6.307 l -8.83,0 -0.002,0 -0.005,0 -0.01,0 -0.013,0 -0.016,0 -0.02,0 -0.023,0 -0.026,0 -0.029,0 -0.032,0 -0.03,0 -0.005,0 -0.039,0 -0.042,0 -0.044,0 -0.049,0 -0.013,0 -0.037,0 -0.055,0 -0.053,0 -0.042,0 -0.017,0 -0.061,0 -0.064,0 -0.037,0 -0.03,0 -0.069,0 -0.07,0 -0.006,0 -0.067,0 -0.075,0 -0.024,0 -0.053,0 -0.081,0 -0.024,0 -0.059,0 -0.082,0 -0.011,0 -0.076,0 -0.067,0 -0.019,0 -0.09,0 -0.026,0 -0.066,0 -0.059,0 -0.034,0 -0.082,0 -0.013,0 -0.095,0 -0.002,0 -0.095,0 -0.002,0 -0.085,0 -0.015,0 -0.063,0 -0.037,0 -0.027,0 -0.056,0 -0.021,0 -0.022,0 -0.032,0 -0.019,0 -0.006,0 -2.523,0 c -2.524,0 -2.524,-6.307 -5.046,-6.307 l -3.786,0 c -3.483,0 -6.308,-2.826 -6.308,-6.308 l 0,-37.85 c 0,-3.482 2.825,-6.311 6.308,-6.309 l 63.082,0 c 3.482,0 6.307,2.827 6.307,6.309 l 0,37.85 c 0,3.482 -2.825,6.308 -6.307,6.308"
             id="path3338"
             style="fill:#231f20;fill-opacity:1;fill-rule:nonzero;stroke:none" /></g><g
           transform="translate(253.9268,233.7939)"
           id="g3340"><path
             d="m 0,0 c -7.663,0 -13.878,-6.215 -13.878,-13.879 0,-7.662 6.215,-13.879 13.878,-13.879 7.663,0 13.878,6.217 13.878,13.879 C 13.878,-6.215 7.663,0 0,0"
             id="path3342"
             style="fill:#231f20;fill-opacity:1;fill-rule:nonzero;stroke:none" /></g><g
           transform="translate(391.7769,256.4932)"
           id="g3344"><path
             d="m 0,0 c -1.439,1.918 -4.16,2.307 -6.078,0.869 l -18.618,-13.969 14.467,0 9.361,7.024 C 1.052,-4.637 1.437,-1.918 0,0"
             id="path3346"
             style="fill:#231f20;fill-opacity:1;fill-rule:nonzero;stroke:none" /></g><g
           transform="translate(408.0962,205.2979)"
           id="g3348"><path
             d="m 0,0 c 0.423,0.525 0.845,1.047 1.263,1.564 l -24.713,0 -13.809,-17.093 c 0,0 -11.152,-13.809 -7.388,-24.448 C -14.869,-18.41 -3.718,-4.602 0,0"
             id="path3350"
             style="fill:#231f20;fill-opacity:1;fill-rule:nonzero;stroke:none" /></g><g
           transform="translate(357.5698,219.3506)"
           id="g3352"><path
             d="m 0,0 0,4.025 -3.801,0 0,3.575 3.801,0 0,3.802 3.797,0 0,-3.802 3.804,0 0,-3.575 -3.804,0 L 3.797,0 0,0 z m 56.365,5.701 c 0,-1.767 -1.434,-3.203 -3.204,-3.203 -1.768,0 -3.204,1.436 -3.204,3.203 0,1.77 1.438,3.205 3.204,3.205 1.77,0 3.204,-1.435 3.204,-3.205 m 10.647,0.076 c 0,7.68 -6.248,13.928 -13.925,13.928 l -57.522,0 c -7.678,0 -13.924,-6.248 -13.924,-13.928 0,-7.677 6.246,-13.923 13.924,-13.923 l 57.522,0 c 7.677,0 13.925,6.246 13.925,13.923"
             id="path3354"
             style="fill:#231f20;fill-opacity:1;fill-rule:nonzero;stroke:none" /></g><g
           transform="translate(191.2764,183.1387)"
           id="g3356"><path
             d="M 0,0 -43.016,-0.039 -43.098,84.452 -0.082,84.494 0,0 z"
             id="path3358"
             style="fill:#ffffff;fill-opacity:1;fill-rule:nonzero;stroke:none" /></g><g
           transform="translate(189.9316,196.8213)"
           id="g3360"><path
             d="m 0,0 c 0,-1.333 -1.086,-2.422 -2.425,-2.422 l -35.559,0 c -1.34,0 -2.424,1.089 -2.424,2.422 l 0,66.71 c 0,1.34 1.084,2.424 2.424,2.424 l 35.559,0 C -1.086,69.134 0,68.05 0,66.71 L 0,0 z m -20.206,-13.701 c -2.325,0 -4.211,1.885 -4.211,4.211 0,2.324 1.886,4.205 4.211,4.205 2.324,0 4.209,-1.881 4.209,-4.205 0,-2.326 -1.885,-4.211 -4.209,-4.211 m 17.781,86.881 -35.559,0 c -3.568,0 -6.468,-2.903 -6.468,-6.47 l 0,-76.806 c 0,-3.576 2.9,-6.466 6.468,-6.466 l 35.559,0 c 3.571,0 6.469,2.89 6.469,6.466 l 0,76.806 c 0,3.567 -2.898,6.47 -6.469,6.47"
             id="path3362"
             style="fill:#231f20;fill-opacity:1;fill-rule:nonzero;stroke:none" /></g><path
           d="m 581.149,265.722 -335.291,0 0,59.557 335.291,0 0,-59.557 z"
           id="path3364"
           style="fill:#ffffff;fill-opacity:1;fill-rule:nonzero;stroke:none" /><g
           transform="translate(346.7676,308.8779)"
           id="g3366"><path
             d="m 0,0 -5.394,0 0,-9.115 5.394,0 c 2.02,0 3.717,0.564 5.123,1.699 0.891,0.734 1.326,1.717 1.328,3.045 -0.002,1.26 -0.478,2.26 -1.486,3.107 C 3.982,-0.439 2.333,0.008 0,0"
             id="path3368"
             style="fill:#231f20;fill-opacity:1;fill-rule:nonzero;stroke:none" /></g><g
           transform="translate(569.8057,278.9189)"
           id="g3370"><path
             d="m 0,0 -6.396,0 0,3.938 c -1.279,-1.305 -2.583,-2.299 -3.915,-2.979 -2.11,-1.109 -4.38,-1.676 -6.795,-1.676 l -0.016,0 c -2.497,0 -4.889,0.625 -7.159,1.842 -2.3,1.236 -4.165,3.193 -5.594,5.842 -1.46,2.666 -2.165,6.271 -2.165,10.793 0,4.72 0.739,8.529 2.269,11.431 1.504,2.889 3.596,5.036 6.243,6.414 2.629,1.37 5.451,2.055 8.435,2.055 2.74,0 5.152,-0.531 7.264,-1.605 2.08,-1.061 3.781,-2.522 5.066,-4.371 0.831,-1.2 1.523,-2.829 2.083,-4.897 l 0.081,-0.297 -6.276,-2.144 -0.101,0.308 c -0.638,1.93 -1.454,3.35 -2.405,4.283 -1.391,1.327 -3.175,1.993 -5.417,1.993 -2.666,0 -4.807,-0.873 -6.517,-2.637 -1.666,-1.711 -2.555,-4.928 -2.555,-9.66 0,-5.67 1.452,-9.584 4.188,-11.324 1.555,-0.989 2.87,-1.313 4.45,-1.319 1.192,0.006 2.352,0.246 3.528,0.731 1.154,0.496 2.086,1.095 2.781,1.8 0.721,0.706 1.242,1.417 1.6,2.122 0.313,0.613 0.599,1.447 0.841,2.468 l -9.407,0 0,6.096 L 0,19.207 0,0 z m -45.085,0 -7.582,0 -14.786,24.463 0,-24.463 -7.798,0 0,36.949 8.064,0 14.381,-23.529 0,23.529 7.721,0 0,-36.949 z m -45.264,0 -7.817,0 0,15.705 -13.022,0 0,-15.705 -7.736,0 0,36.949 7.736,0 0,-14.33 13.022,0 0,14.33 7.817,0 0,-36.949 z m -41.123,30.057 -10.22,0 0,-30.057 -7.771,0 0,30.057 -10.175,0 0,6.892 28.166,0 0,-6.892 z m -48.588,-13.625 0,-16.432 -7.836,0 0,16.432 -10.298,20.039 -0.242,0.478 8.174,0 6.291,-12.205 6.211,12.205 8.197,0 -10.497,-20.517 z M -208.567,0 l -7.791,0 -6.084,14.59 -5.99,0 0,-14.59 -7.82,0 0,36.949 10.126,0 c 5.287,-0.004 8.94,-0.386 11.045,-1.213 2.074,-0.806 3.71,-2.172 4.864,-4.043 1.161,-1.873 1.739,-4.027 1.738,-6.435 0.001,-2.217 -0.523,-4.082 -1.583,-5.559 -1.02,-1.435 -2.731,-2.637 -5.102,-3.635 L -208.567,0 z m -51.344,0 -7.392,0 -11.146,36.527 -0.128,0.422 7.639,0 7.319,-24.16 7.42,24.16 7.528,0 L -259.911,0 z m -29.168,29.984 -17.201,0 0,-7.339 10.49,0 0,-6.041 -10.49,0 0,-9.69 17.201,0 0,-6.914 -24.996,0 0,36.949 24.996,0 0,-6.965 z m -45.629,-50.39 357.521,0 0,78.262 -357.521,0 0,-78.262 z"
             id="path3372"
             style="fill:#231f20;fill-opacity:1;fill-rule:nonzero;stroke:none" /></g><g
           transform="translate(321.5854,499.7622)"
           id="g3374"><path
             d="m 0,0 c 0,2.346 -1.937,3.875 -4.691,3.875 l -2.414,0 0,-8.091 C -6.697,-4.25 -6.153,-4.284 -4.589,-4.284 -1.7,-4.284 0,-2.652 0,0 m -13.497,-11.627 2.55,0 0,15.502 -2.55,0 0,3.434 9.01,0 c 4.793,0 8.465,-2.753 8.465,-7.309 0,-5.134 -3.638,-7.649 -8.907,-7.649 -1.054,0 -1.7,0 -2.176,0.034 l 0,-4.012 2.788,0 0,-3.434 -9.18,0 0,3.434 z"
             id="path3376"
             style="fill:#231f20;fill-opacity:1;fill-rule:nonzero;stroke:none" /></g><g
           transform="translate(347.1191,495.8867)"
           id="g3378"><path
             d="m 0,0 c 0,4.657 -3.162,8.023 -7.479,8.023 -4.352,0 -7.514,-3.332 -7.514,-8.023 0,-4.658 3.162,-8.023 7.514,-8.023 C -3.162,-8.023 0,-4.692 0,0 m -18.97,0 c 0,6.561 4.759,11.593 11.558,11.593 6.766,0 11.39,-5.066 11.39,-11.593 0,-6.562 -4.76,-11.593 -11.56,-11.593 -6.765,0 -11.388,5.066 -11.388,11.593"
             id="path3380"
             style="fill:#231f20;fill-opacity:1;fill-rule:nonzero;stroke:none" /></g><g
           transform="translate(354.6353,503.6377)"
           id="g3382"><path
             d="m 0,0 -2.38,0 0,3.434 9.519,0 0,-3.434 -2.957,0 3.637,-11.763 5.542,13.021 2.04,0 5.541,-13.021 3.4,11.763 -3.06,0 0,3.434 9.519,0 0,-3.434 -2.38,0 -6.017,-19.174 -2.142,0 -5.983,13.769 -6.018,-13.769 -2.141,0 L 0,0 z"
             id="path3384"
             style="fill:#231f20;fill-opacity:1;fill-rule:nonzero;stroke:none" /></g><g
           transform="translate(387.4795,488.1353)"
           id="g3386"><path
             d="m 0,0 2.549,0 0,15.502 -2.549,0 0,3.434 16.691,0 0,-6.391 -3.67,0 0,2.992 -6.63,0 0,-5.984 6.765,0 0,-3.263 -6.765,0 0,-6.324 6.664,0 0,2.992 3.672,0 0,-6.392 L 0,-3.434 0,0 z"
             id="path3388"
             style="fill:#231f20;fill-opacity:1;fill-rule:nonzero;stroke:none" /></g><g
           transform="translate(420.5928,500.1699)"
           id="g3390"><path
             d="m 0,0 c 0,2.346 -1.937,3.468 -5.031,3.468 l -2.073,0 0,-7.174 c 0.407,-0.033 0.952,-0.067 2.175,-0.067 C -2.039,-3.773 0,-2.346 0,0 m -13.496,-12.035 2.55,0 0,15.503 -2.55,0 0,3.433 8.669,0 c 5.134,0 8.806,-2.209 8.806,-6.765 0,-2.889 -1.768,-5.099 -4.216,-6.085 l 3.433,-6.086 2.55,0 0,-3.433 -5.168,0 -4.487,8.499 c -0.476,-0.034 -0.918,-0.068 -1.361,-0.068 -0.712,0 -1.359,0 -1.834,0.034 l 0,-5.032 2.788,0 0,-3.433 -9.18,0 0,3.433 z"
             id="path3392"
             style="fill:#231f20;fill-opacity:1;fill-rule:nonzero;stroke:none" /></g><g
           transform="translate(428.1768,488.1353)"
           id="g3394"><path
             d="m 0,0 2.55,0 0,15.502 -2.55,0 0,3.434 16.692,0 0,-6.391 -3.671,0 0,2.992 -6.629,0 0,-5.984 6.764,0 0,-3.263 -6.764,0 0,-6.324 6.663,0 0,2.992 3.672,0 0,-6.392 L 0,-3.434 0,0 z"
             id="path3396"
             style="fill:#231f20;fill-opacity:1;fill-rule:nonzero;stroke:none" /></g><g
           transform="translate(456.3955,488.1353)"
           id="g3398"><path
             d="m 0,0 c 5.779,0 8.771,3.128 8.771,7.921 0,4.896 -3.467,7.581 -9.042,7.581 l -1.938,0 L -2.209,0 0,0 z m -8.602,0 2.551,0 0,15.502 -2.551,0 0,3.434 8.466,0 c 8.091,0 12.885,-4.215 12.885,-10.981 0,-6.833 -4.521,-11.389 -13.293,-11.389 l -8.058,0 0,3.434 z"
             id="path3400"
             style="fill:#231f20;fill-opacity:1;fill-rule:nonzero;stroke:none" /></g><g
           transform="translate(488.8311,488.0674)"
           id="g3402"><path
             d="m 0,0 c 2.651,0 4.42,1.088 4.42,3.229 0,2.074 -1.633,3.23 -4.522,3.23 l -2.923,0 L -3.025,0 0,0 z m -0.408,9.519 c 2.685,0 4.181,1.224 4.181,3.162 0,1.903 -1.564,2.957 -4.283,2.957 l -2.515,0 0,-6.119 2.617,0 z m -8.975,-9.451 2.549,0 0,15.502 -2.549,0 0,3.434 8.941,0 c 5.473,0 8.159,-2.516 8.159,-5.881 0,-2.584 -1.598,-4.25 -3.808,-4.998 2.788,-0.816 4.454,-2.448 4.454,-5.235 0,-3.706 -2.992,-6.256 -8.431,-6.256 l -9.315,0 0,3.434 z"
             id="path3404"
             style="fill:#231f20;fill-opacity:1;fill-rule:nonzero;stroke:none" /></g><g
           transform="translate(503.6553,488.1353)"
           id="g3406"><path
             d="m 0,0 2.821,0 0,5.1 -6.357,10.402 -2.243,0 0,3.434 8.465,0 0,-3.434 -1.972,0 4.113,-7.173 4.079,7.173 -2.107,0 0,3.434 8.465,0 0,-3.434 -2.243,0 L 6.663,5.1 l 0,-5.1 2.821,0 0,-3.434 L 0,-3.434 0,0 z"
             id="path3408"
             style="fill:#231f20;fill-opacity:1;fill-rule:nonzero;stroke:none" /></g></g></g></g></svg>
