<?xml version="1.0" encoding="UTF-8" standalone="no"?>
<!-- Created with Inkscape (http://www.inkscape.org/) -->

<svg
   xmlns:dc="http://purl.org/dc/elements/1.1/"
   xmlns:cc="http://creativecommons.org/ns#"
   xmlns:rdf="http://www.w3.org/1999/02/22-rdf-syntax-ns#"
   xmlns:svg="http://www.w3.org/2000/svg"
   xmlns="http://www.w3.org/2000/svg"
   xmlns:sodipodi="http://sodipodi.sourceforge.net/DTD/sodipodi-0.dtd"
   xmlns:inkscape="http://www.inkscape.org/namespaces/inkscape"
   width="527.27338"
   height="182.32071"
   id="svg4041"
   version="1.1"
   inkscape:version="0.48.4 r9939"
   sodipodi:docname="evt_header.svg">
  <defs
     id="defs4043" />
  <sodipodi:namedview
     id="base"
     pagecolor="#ffffff"
     bordercolor="#666666"
     borderopacity="1.0"
     inkscape:pageopacity="0.0"
     inkscape:pageshadow="2"
     inkscape:zoom="2.56"
     inkscape:cx="345.03046"
     inkscape:cy="133.4947"
     inkscape:document-units="px"
     inkscape:current-layer="g4215"
     showgrid="false"
     inkscape:snap-bbox="false"
     inkscape:bbox-paths="false"
     inkscape:bbox-nodes="false"
     inkscape:snap-bbox-edge-midpoints="false"
     inkscape:snap-bbox-midpoints="false"
     fit-margin-top="0"
     fit-margin-left="0"
     fit-margin-right="0"
     fit-margin-bottom="0"
     inkscape:window-width="1855"
     inkscape:window-height="1056"
     inkscape:window-x="65"
     inkscape:window-y="260"
     inkscape:window-maximized="1" />
  <metadata
     id="metadata4046">
    <rdf:RDF>
      <cc:Work
         rdf:about="">
        <dc:format>image/svg+xml</dc:format>
        <dc:type
           rdf:resource="http://purl.org/dc/dcmitype/StillImage" />
        <dc:title></dc:title>
      </cc:Work>
    </rdf:RDF>
  </metadata>
  <g
     inkscape:label="Layer 1"
     inkscape:groupmode="layer"
     id="layer1"
     transform="translate(13.253946,0.00259803)">
    <g
       id="g4215"
       transform="translate(-72.920387,-739.69999)">
      <path
         sodipodi:nodetypes="cccccccccccccccccccccccc"
         inkscape:connector-curvature="0"
         d="m 59.669206,922.0181 c -0.13125,-13.00872 4.4225,-12.83122 10.93125,-12.87872 -1.08625,-0.62625 -1.86,-1.74875 -1.87,-3.09625 -0.025,-2.0325 1.60625,-3.69625 3.638748,-3.71625 2.02875,-0.0175 3.6925,1.6125 3.71375,3.64 0.015,1.51125 -0.88875,2.82 -2.18875,3.39625 2.04625,0.15375 4.17,0.2725 6.33625,0.32875 -1.1675,-0.60125 -1.995,-1.775 -2.0075,-3.18 -0.0213,-2.03 1.61125,-3.695 3.639999,-3.715 2.0275,-0.0212 3.69375,1.60875 3.70875,3.63875 0.0213,1.44875 -0.83,2.68375 -2.04,3.29625 2.395,0.0113 4.792498,-0.0263 7.116248,-0.15375 -1.1525,-0.60875 -1.97875,-1.7775 -1.99125,-3.17 -0.0175,-2.03375 1.61375,-3.695 3.64125,-3.71625 2.02875,-0.0213 3.6925,1.60875 3.71375,3.63875 0.0138,1.22625 -0.62125,2.2675 -1.53625,2.94375 13.153749,-0.12875 6.239999,4.5825 18.323749,4.45875 l 128.21,-3.71625 c 0.13,-7.165 0.67625,-16.33125 2.30875,-21.62625 2.2525,-7.29375 9.40875,-19.0025 28.94,-15.12625 21.54,4.27375 30.955,5.13 48.8175,-5.435 18.50875,-10.95 31.295,-14.345 41.15,-15.5425 13.075,-1.58625 30.8625,2.895 40.30875,16.4675 9.63125,13.84375 12.15485,32.00081 12.3661,53.24082"
         style="fill:#231f20;fill-opacity:1;fill-rule:nonzero;stroke:none"
         id="path3328" />
      <path
         style="fill:#231f20;fill-opacity:1;fill-rule:nonzero;stroke:none"
         d="m 429.41007,773.10251 c -0.6217,0 -1.125,0.53632 -1.125,1.15625 l 0,19.5 c 0,0.61993 0.5033,1.125 1.125,1.125 l 20.40625,0 c 0.63232,0 1.125,0.53278 1.125,1.15625 l 0,2.625 c 0,0.62701 -0.49268,1.125 -1.125,1.125 l -15.53125,0 c -0.61816,0 -1.24861,0.49153 -1.40625,1.09375 0,0 -1.49703,5.57547 -5.9375,9.125 -4.45109,3.56371 -17.78125,10.69569 -17.78125,24.03125 l 0,72.6875 0,2.25 c 0,0 -0.001,13.09375 15.5625,13.09375 l 51.3125,0 c 0.61993,0 1.65778,0.0389 2.28125,0.0937 0,0 10.4375,0.80552 10.4375,-16.09375 l 0,-72.6875 c 0,-0.62348 -0.14778,-1.62007 -0.3125,-2.21875 0,0 -2.79948,-10.0206 -11.25,-16.6875 -8.45052,-6.67752 -10.66981,-10.24232 -12,-12.90625 -1.34082,-2.67101 -0.375,-5.59375 -0.375,-5.59375 0.19306,-0.58804 0.88007,-1.09375 1.5,-1.09375 l 2.1875,0 c 0.61815,0 1.125,-0.50153 1.125,-1.125 l 0,-19.5 c 0,-0.61993 -0.50685,-1.15625 -1.125,-1.15625 l -39.09375,0 z m 27.71875,107.625 c 2.18798,-0.012 4.36357,0.90907 5.875,2.71875 l 7.90625,9.5 -11.71875,9.6875 -7.84375,-9.4375 c -2.68518,-3.22258 -2.2815,-7.99694 0.9375,-10.6875 1.40988,-1.17712 3.14198,-1.77194 4.84375,-1.78125 z m 15.4375,14.25 7.84375,9.53125 c 2.65831,3.24587 2.18336,8.03277 -1.0625,10.6875 -3.24766,2.66011 -8.03097,2.17979 -10.6875,-1.0625 l -7.78125,-9.5 11.6875,-9.65625 z m -48.53125,6.6875 12.28125,0.0625 0,15.1875 -12.34375,-0.0625 c -4.19347,-0.0197 -7.5822,-3.43153 -7.5625,-7.625 0.0197,-4.19526 3.43152,-7.5804 7.625,-7.5625 z m 27.1875,0 c 4.19347,-0.0179 7.6053,3.36724 7.625,7.5625 0.0215,4.19527 -3.33599,7.6035 -7.53125,7.625 l -12.375,0.0625 0,-15.1875 12.28125,-0.0625 z"
         id="path3236"
         inkscape:connector-curvature="0" />
      <g
         transform="matrix(2.0302085,0,0,-2.0302085,577.90104,888.40616)"
         id="g3360">
        <path
           id="path3362"
           style="fill:#231f20;fill-opacity:1;fill-rule:nonzero;stroke:none"
           d="m 0,0 c 0,-1.333 -1.086,-2.422 -2.425,-2.422 l -35.559,0 c -1.34,0 -2.424,1.089 -2.424,2.422 l 0,66.71 c 0,1.34 1.084,2.424 2.424,2.424 l 35.559,0 C -1.086,69.134 0,68.05 0,66.71 L 0,0 z m -20.206,-13.701 c -2.325,0 -4.211,1.885 -4.211,4.211 0,2.324 1.886,4.205 4.211,4.205 2.324,0 4.209,-1.881 4.209,-4.205 0,-2.326 -1.885,-4.211 -4.209,-4.211 m 17.781,86.881 -35.559,0 c -3.568,0 -6.468,-2.903 -6.468,-6.47 l 0,-76.806 c 0,-3.576 2.9,-6.466 6.468,-6.466 l 35.559,0 c 3.571,0 6.469,2.89 6.469,6.466 l 0,76.806 c 0,3.567 -2.898,6.47 -6.469,6.47"
           inkscape:connector-curvature="0" />
      </g>
    </g>
  </g>
</svg>
